<svg xmlns="http://www.w3.org/2000/svg" viewBox="0 0 500 500"><g id="freepik--Floor--inject-4"><path d="M408.62,264c88.18,50.91,88.64,133.45,1,184.36s-230.1,50.91-318.28,0S2.74,314.94,90.34,264,320.44,213.12,408.62,264Z" style="fill:#f5f5f5"></path></g><g id="freepik--Clouds--inject-4"><path d="M402.74,55.55c-4.33-2.51-8-1.28-9.16,2.61A12.8,12.8,0,0,0,388.9,53c-3.39-2-6.16-.39-6.17,3.51v1.79l-4.56-2.63c-2.38-1.37-4.31-.27-4.32,2.47a9.44,9.44,0,0,0,4.29,7.43l38.61,22.29c2.38,1.37,4.31.27,4.32-2.46a9.47,9.47,0,0,0-4.29-7.44l-4.56-2.63V72C412.25,65.94,408,58.58,402.74,55.55Z" style="fill:#e6e6e6"></path><path d="M360.52,63c-3.11-1.79-5.74-.91-6.57,1.88a9.23,9.23,0,0,0-3.36-3.74c-2.44-1.41-4.42-.28-4.43,2.52V65l-3.27-1.89c-1.71-1-3.1-.19-3.1,1.77a6.78,6.78,0,0,0,3.07,5.33l27.72,16c1.7,1,3.09.2,3.1-1.77a6.81,6.81,0,0,0-3.08-5.33l-3.28-1.89V74.82A15,15,0,0,0,360.52,63Z" style="fill:#e6e6e6"></path></g><g id="freepik--Shadows--inject-4"><g style="opacity:0.1"><path d="M74.71,348.37l7.37,4a4.78,4.78,0,0,0,4.68-.07L190.63,292a2.39,2.39,0,0,0-.06-4.17l-9.73-5.26L74.65,344.2A2.39,2.39,0,0,0,74.71,348.37Z"></path></g><path d="M247.33,419.59c14.74,8.51,14.82,22.31.17,30.83s-38.48,8.51-53.22,0-14.82-22.32-.18-30.83S232.58,411.07,247.33,419.59Z" style="opacity:0.1"></path><path d="M333.59,390c14.75,8.51,14.83,22.31.18,30.82s-38.48,8.52-53.22,0-14.83-22.31-.18-30.82S318.85,381.5,333.59,390Z" style="opacity:0.1"></path><path d="M424,387.27c14.75,8.52,14.83,22.32.18,30.83s-38.48,8.51-53.22,0-14.83-22.31-.18-30.83S409.24,378.76,424,387.27Z" style="opacity:0.1"></path><path d="M380.88,322.12c14.74,8.51,14.82,22.31.17,30.83s-38.47,8.51-53.22,0-14.82-22.32-.17-30.83S366.13,313.61,380.88,322.12Z" style="opacity:0.1"></path></g><g id="freepik--Plants--inject-4"><path d="M440.59,321.15l-4.78-3.92c-.29-7.53-.58-15.46.67-22.89s4.17-14.79,9.48-20.13c2.23-2.23,5-4.14,8.13-4.5s6.63,1.22,7.71,4.19-.57,6.47-2.39,9.23c-3.87,5.88-8.49,11.25-12.28,17.18A41.89,41.89,0,0,0,440.59,321.15Z" style="fill:#E96AFF"></path><path d="M440.59,322.18l4.78,3.92c3.53-7.45,8.4-14.36,15.12-19.14,2.3-1.63,4.77-3.09,6.7-5.15s3.27-4.92,2.71-7.69c-.72-3.55-4.49-5.89-8.11-5.91s-7,1.82-9.82,4.11C443.35,299.35,438.42,311.27,440.59,322.18Z" style="fill:#E96AFF"></path><path d="M440.59,322.18l4.78,3.92c3.53-7.45,8.4-14.36,15.12-19.14,2.3-1.63,4.77-3.09,6.7-5.15s3.27-4.92,2.71-7.69c-.72-3.55-4.49-5.89-8.11-5.91s-7,1.82-9.82,4.11C443.35,299.35,438.42,311.27,440.59,322.18Z" style="opacity:0.30000000000000004"></path><path d="M437.9,319.35h0a.4.4,0,0,1-.4-.42c.19-11.16,2.7-31.79,17.29-44.46a.42.42,0,0,1,.59,0,.41.41,0,0,1,0,.58c-6.17,5.35-16.57,18.16-17,43.86A.41.41,0,0,1,437.9,319.35Z" style="fill:#fff"></path><path d="M442.9,324.49h0a.42.42,0,0,1-.37-.45c1-10,5.36-23.86,20.68-32.72a.41.41,0,0,1,.41.72c-15,8.67-19.31,22.23-20.27,32.08A.41.41,0,0,1,442.9,324.49Z" style="fill:#fff"></path><path d="M56.89,295.57c-3.29-2.77-6.94-5.11-10-8.08-2.12-2-4.07-4.64-3.93-7.57a7.33,7.33,0,0,1,4.71-6.13,11.08,11.08,0,0,1,8,.2,23.92,23.92,0,0,1,6.86,4.36A58.45,58.45,0,0,1,82.6,316.93a8.74,8.74,0,0,1-.58,5,4.82,4.82,0,0,1-4.57,2.45c-4.68-.45-5.27-6.54-6.69-9.92A50.3,50.3,0,0,0,63,301.65,49.8,49.8,0,0,0,56.89,295.57Z" style="fill:#E96AFF"></path><path d="M78.28,319.58a.39.39,0,0,1-.38-.3c-1.71-7-8.8-30.85-28.23-41.33a.39.39,0,0,1-.16-.53.38.38,0,0,1,.53-.16C69.76,287.89,76.93,312,78.66,319.09a.38.38,0,0,1-.29.48Z" style="fill:#f0f0f0"></path><path d="M81.84,329.44a12.15,12.15,0,0,1-4,8.6,15.66,15.66,0,0,1-8,3,37,37,0,0,1-8.73-.34c-1.43-.19-3-.5-3.51-2.13a3.05,3.05,0,0,1,.49-2.53,10.26,10.26,0,0,1,.72-.91.87.87,0,0,0-.76-1.45,19.85,19.85,0,0,1-2.43.17,10.75,10.75,0,0,1-5.44-1.27,8.53,8.53,0,0,1-3-3c-.62-1-1-2.42-.33-3.42A3.88,3.88,0,0,1,48.66,325c.57-.24,1.15-.47,1.73-.68a.81.81,0,0,0-.12-1.55l-2.73-.56a4.77,4.77,0,0,1-2.14-.81A4.23,4.23,0,0,1,44.23,318c0-1.64.24-3.27.3-4.9a10.09,10.09,0,0,0-.77-4.81,40.86,40.86,0,0,1,14.31-1.84,10.33,10.33,0,0,1,4.19.93c1.82.95,2.6,2.76,2.84,4.83a.37.37,0,0,0,.72.06l1-3.29a2,2,0,0,1,2.35-1.29,11.92,11.92,0,0,1,4.25,2.17A6.52,6.52,0,0,1,76,314.31a41.68,41.68,0,0,1,.18,7.15.66.66,0,0,0,1.14.48l.07-.07a2.22,2.22,0,0,1,1.43-.74c1.46-.1,2.11,1.27,2.44,2.48A24.18,24.18,0,0,1,81.84,329.44Z" style="fill:#E96AFF"></path><path d="M81.84,329.44a12.15,12.15,0,0,1-4,8.6,15.66,15.66,0,0,1-8,3,37,37,0,0,1-8.73-.34c-1.43-.19-3-.5-3.51-2.13a3.05,3.05,0,0,1,.49-2.53,10.26,10.26,0,0,1,.72-.91.87.87,0,0,0-.76-1.45,19.85,19.85,0,0,1-2.43.17,10.75,10.75,0,0,1-5.44-1.27,8.53,8.53,0,0,1-3-3c-.62-1-1-2.42-.33-3.42A3.88,3.88,0,0,1,48.66,325c.57-.24,1.15-.47,1.73-.68a.81.81,0,0,0-.12-1.55l-2.73-.56a4.77,4.77,0,0,1-2.14-.81A4.23,4.23,0,0,1,44.23,318c0-1.64.24-3.27.3-4.9a10.09,10.09,0,0,0-.77-4.81,40.86,40.86,0,0,1,14.31-1.84,10.33,10.33,0,0,1,4.19.93c1.82.95,2.6,2.76,2.84,4.83a.37.37,0,0,0,.72.06l1-3.29a2,2,0,0,1,2.35-1.29,11.92,11.92,0,0,1,4.25,2.17A6.52,6.52,0,0,1,76,314.31a41.68,41.68,0,0,1,.18,7.15.66.66,0,0,0,1.14.48l.07-.07a2.22,2.22,0,0,1,1.43-.74c1.46-.1,2.11,1.27,2.44,2.48A24.18,24.18,0,0,1,81.84,329.44Z" style="opacity:0.2"></path><path d="M75.75,338.05a58,58,0,0,0-6-10.26.36.36,0,0,0-.19-.26c-.12-.18-.25-.35-.38-.53a36.08,36.08,0,0,1,1.29-13.34.42.42,0,0,0-.25-.51.4.4,0,0,0-.5.25,36.88,36.88,0,0,0-1.41,12.45c-4.48-5.82-11.1-12.35-20.1-16.3a.39.39,0,1,0-.32.72c9.29,4.08,16,10.94,20.42,16.87a24.16,24.16,0,0,0-13.83.83.39.39,0,0,0-.22.51.4.4,0,0,0,.52.22c.07,0,7.2-2.83,14.29-.51A57.69,57.69,0,0,1,75,338.35a.4.4,0,0,0,.37.25.32.32,0,0,0,.14,0A.4.4,0,0,0,75.75,338.05Z" style="fill:#f0f0f0"></path></g><g id="freepik--character-1--inject-4"><path d="M189.74,67.68h0C189,65.18,184,60.45,179,60.55a4.32,4.32,0,0,0-1.41.28L80,116.36a9.42,9.42,0,0,0-4.72,8.11V335.6c0,5.37,6.2,10.51,12,8l0,0a2.87,2.87,0,0,0,.37-.15l97.61-55.62a9.34,9.34,0,0,0,4.71-8.11v-211A2.25,2.25,0,0,0,189.74,67.68Z" style="fill:#37474f"></path><path d="M88.85,146.79a4.67,4.67,0,0,1,2.36-4.06l90.63-51.56a2.34,2.34,0,0,1,3.49,2V263.44A4.7,4.7,0,0,1,183,267.5L92.34,319.14a2.34,2.34,0,0,1-3.49-2Z" style="fill:#E96AFF"></path><path d="M75.24,124.47V335.6c0,5.37,6.2,10.51,12,8l0,0a2.33,2.33,0,0,1-3.12-2.18V130.31a9.34,9.34,0,0,1,1.58-5.16l-9.56-4.77A9.38,9.38,0,0,0,75.24,124.47Z" style="fill:#263238"></path><path d="M179,60.55a4.32,4.32,0,0,0-1.41.28L80,116.36a9.34,9.34,0,0,0-3.76,4l9.56,4.77a9.26,9.26,0,0,1,3.14-3l97.61-55.53a2.31,2.31,0,0,1,3.23,1h0C189,65.18,184,60.45,179,60.55Z" style="fill:#455a64"></path><path d="M149.12,101.53c.68-.4,1.25-.09,1.25.7a2.77,2.77,0,0,1-1.24,2.16l-19.15,11c-.69.4-1.24.07-1.24-.72a2.68,2.68,0,0,1,1.23-2.14Z" style="fill:#263238"></path><path d="M125.05,115.42c.69-.39,1.24-.08,1.24.71a2.74,2.74,0,0,1-1.23,2.15c-.69.4-1.25.07-1.26-.71A2.78,2.78,0,0,1,125.05,115.42Z" style="fill:#263238"></path><path d="M137.31,99.92c1.37-.79,2.47-.16,2.48,1.41a5.48,5.48,0,0,1-2.47,4.3c-1.36.79-2.5.15-2.5-1.43A5.45,5.45,0,0,1,137.31,99.92Z" style="fill:#263238"></path><path d="M137.32,298.67c2.78-1.61,5-.32,5,2.88a11.13,11.13,0,0,1-5,8.76c-2.79,1.61-5.1.29-5.11-2.91A11.15,11.15,0,0,1,137.32,298.67Z" style="fill:#263238"></path><path d="M151.83,184.79l3.26-1.82a16.75,16.75,0,0,1,19.58,2.35l27.26,25.34s10.31-18.79,12.21-25c.6-2-.55-4.06-1.12-6a12.64,12.64,0,0,1-.65-6,16,16,0,0,0-.61-7.88,1.41,1.41,0,0,1,1.43-1.82l.29,0a3.22,3.22,0,0,1,2,.81,4.34,4.34,0,0,1,1,1.92,28.75,28.75,0,0,1,1.17,5.51,26,26,0,0,0,2.21-11.36,16.31,16.31,0,0,1,.08-4.47,3.89,3.89,0,0,1,2.86-3.1,10.64,10.64,0,0,1,1.62,3.52,3.39,3.39,0,0,1,2.74.07,3,3,0,0,1,1.43,2.17c2.19.15,4.08,2.1,5,4.1a13.9,13.9,0,0,1,.83,6.47,36.91,36.91,0,0,1-7.4,19.88c-3.53,13.41-6.67,28.51-11.68,40.26A10,10,0,0,1,200.55,234a428.73,428.73,0,0,1-35.36-26.32Z" style="fill:#8c5554"></path><path d="M151.83,184.79l3.26-1.82a16.75,16.75,0,0,1,19.58,2.35l21.47,20c-2.14,10.91-12.41,18.49-12.41,18.49l-18.54-16.05Z" style="fill:#e0e0e0"></path><path d="M199.18,223.22c-.09-5.43,1-8.52,2.75-12.56l-1.43-1.33C199.18,211,196.61,215.58,199.18,223.22Z" style="opacity:0.2"></path><path d="M220.22,186.11a8.3,8.3,0,0,0-.23-11.46,6.25,6.25,0,0,1,3.84,5.4A7,7,0,0,1,220.22,186.11Z" style="opacity:0.2"></path><path d="M173.38,262,115,263s-3.34,18.2-4.28,45.7l62.52-35.63Z" style="fill:#455a64"></path><path d="M152.27,180.84l5.55.58a13.69,13.69,0,0,1,10.06,6.16c5.72,8.82,8.38,22.31,6.84,36.91A324.12,324.12,0,0,0,173.38,262c-24.13,17.61-54.57,4.78-58.4,1l1.79-22.3a15.52,15.52,0,0,0-1.22-7.34c-2.28-5.3-6.34-15.71-6.89-23.78a42.19,42.19,0,0,1,4.4-20.78l21.16-7.94Z" style="fill:#f0f0f0"></path><path d="M134.14,166.82v14.44a6.71,6.71,0,0,0,2.19,5,19.32,19.32,0,0,0,13.9,4.78,4.85,4.85,0,0,0,2.87-.88,3.78,3.78,0,0,0,.92-3.93,7,7,0,0,0-.92-1.91,7.69,7.69,0,0,1-1.27-4.12V166.82Z" style="fill:#8c5554"></path><path d="M135.18,166.91l16.65-.09v12.27c-3.75-.73-7.41-1.69-10.53-3.85A16.29,16.29,0,0,1,135.18,166.91Z" style="fill:#733d3c"></path><path d="M167.4,142.39a10.14,10.14,0,0,0,9.18-5.18,1.39,1.39,0,0,0-1.51-2,11.24,11.24,0,0,1-3.88,0,18.35,18.35,0,0,0,3.61-13.68,1.73,1.73,0,0,0-2.46-1.3,33.93,33.93,0,0,1-17.19,3.47c-3.16-.22-6.27-.89-9.43-1.13a17.42,17.42,0,0,0-9.26,1.41c-2.82,1.44-5.07,4.3-5.07,7.47a4.29,4.29,0,0,0-3.13-1.81,4.76,4.76,0,0,0-3.66,1.08c1.83,1,3.61,2,5.44,3-1.87-.67-4.23.8-5.16,2.55a12.55,12.55,0,0,0-1,5.81,45.43,45.43,0,0,0,.35,7.91,15.32,15.32,0,0,0,3,7.23,11.46,11.46,0,0,0,5.44,3.68,14.84,14.84,0,0,0,8.82-.28,35.49,35.49,0,0,0,8-4A125.37,125.37,0,0,0,167.4,142.39Z" style="fill:#263238"></path><path d="M167.8,137.13a60.75,60.75,0,0,1-3.48,32.45c-.95,2.38-2.19,4.84-4.41,6.11s-5.22,1.05-7.87.65a40,40,0,0,1-12.43-3.49c-3.85-2-7.23-5.18-8.61-9.28a7.45,7.45,0,0,1-7.54-2.95,14.22,14.22,0,0,1-2.44-8.23c0-1.86.35-4.06,2-4.88s3.42.09,4.77,1.18a14.22,14.22,0,0,1,4.64,7c1.23-4.53,3.15-8.91,4.38-13.45.48-1.78,1.08-3.73,2.64-4.72,1.9-1.22,4.38-.52,6.58,0A43.2,43.2,0,0,0,167.8,137.13Z" style="fill:#8c5554"></path><polygon points="154.58 150.9 159.88 159.83 153.56 161.01 154.58 150.9" style="fill:#733d3c"></polygon><path d="M147.46,164.09l4.81,2.34a3.14,3.14,0,0,1-3.65,1C147.44,166.93,147.11,165.34,147.46,164.09Z" style="fill:#733d3c"></path><path d="M147.46,164.09l4.81,2.34a3.14,3.14,0,0,1-3.65,1C147.44,166.93,147.11,165.34,147.46,164.09Z" style="opacity:0.30000000000000004"></path><path d="M150.29,167.62a2.85,2.85,0,0,1-1.67-.16,2.54,2.54,0,0,1-1.28-2.53,2.92,2.92,0,0,1,2.95,2.69Z" style="fill:#733d3c"></path><path d="M145.42,151.25a1.81,1.81,0,1,0,2-1.62A1.81,1.81,0,0,0,145.42,151.25Z" style="fill:#263238"></path><path d="M160.65,152.2a1.82,1.82,0,1,0,2-1.63A1.83,1.83,0,0,0,160.65,152.2Z" style="fill:#263238"></path><path d="M163.14,145.18l3.72,3.17a2.59,2.59,0,0,0-.49-2.91A3.08,3.08,0,0,0,163.14,145.18Z" style="fill:#263238"></path><path d="M147.68,143.4l-4.29,2.37a2.6,2.6,0,0,1,1.07-2.76A3.08,3.08,0,0,1,147.68,143.4Z" style="fill:#263238"></path><path d="M110.58,236,105,256.39l21.66,18.16a8.22,8.22,0,0,0,5.52,1.91,26.49,26.49,0,0,1,6.62.38c1.69.38,3.34.94,5,1.33a14.85,14.85,0,0,0,3.63.45,1.47,1.47,0,0,1,1.41,2.06,3.39,3.39,0,0,1-.73,1,5.92,5.92,0,0,1-3.15,1.23,14.28,14.28,0,0,1-5.41-.28c1.56,2,4.23,3.33,6.67,4.14s5,1.28,7.41,2.14a4.64,4.64,0,0,1,2.38,1.51,1.84,1.84,0,0,1-.3,2.54c-1,.64-2.46-.3-3.6.15a4.56,4.56,0,0,1,0,2,2.83,2.83,0,0,1-1.21,1.62,2,2,0,0,1-2,.06,7.13,7.13,0,0,1-4.58,3.1,14,14,0,0,1-5.62-.07c-7.72-1.43-12.61-8.15-18.66-13.15-.84-.69-22.17-12.58-33.09-18.65a9.34,9.34,0,0,1-4.51-10.52l7-27.09Z" style="fill:#8c5554"></path><path d="M91.69,256c2.34-1.1,9.82-2,13.31.44l.57-2.09A12.26,12.26,0,0,0,91.69,256Z" style="opacity:0.2"></path><path d="M113.27,188.7l-3.06.87a20,20,0,0,0-13.47,12.81L87,231.17c8.83,9.27,24.68,6.43,24.68,6.43L114.77,223C125.84,203.66,115.67,191.84,113.27,188.7Z" style="fill:#e0e0e0"></path></g><g id="freepik--character-4--inject-4"><path d="M377.27,333.4c-.79-2.54-1.65-5.13-1.47-7.78l-.53.13a30.88,30.88,0,0,1-6.37.66h-.67c.57,3.15.16,6.38,0,9.58s-.16,6.53,1.21,9.42a4.24,4.24,0,0,0,1.56,1.93,3.2,3.2,0,0,0,2.52.22,5.54,5.54,0,0,0,2.2-1.36,9,9,0,0,0,2.67-5C378.79,338.59,378.06,335.93,377.27,333.4Z" style="fill:#f28f8f"></path><path d="M377.27,333.4c-.79-2.54-1.65-5.13-1.47-7.78l-.53.13c.21,3,.28,6.08.22,9.12a7.39,7.39,0,0,1-.41,2.69,2.64,2.64,0,0,1-2,1.7,2.69,2.69,0,0,1-2.47-1.49,8,8,0,0,1-.74-2.94c-.33-2.81-.65-5.61-1-8.42h-.67c.57,3.15.16,6.38,0,9.58s-.16,6.53,1.21,9.42a4.24,4.24,0,0,0,1.56,1.93,3.2,3.2,0,0,0,2.52.22,5.54,5.54,0,0,0,2.2-1.36,9,9,0,0,0,2.67-5C378.79,338.59,378.06,335.93,377.27,333.4Z" style="fill:#455a64"></path><path d="M348,322a12.67,12.67,0,0,0-1-2.4c-.11-.2-.22-.4-.32-.6-2.71.48-5.67.65-8.28,1.53a52.7,52.7,0,0,1-3,8,20,20,0,0,1-3.16,4.57,14.38,14.38,0,0,1-2.24,1.95c-.9.64-2,1.3-2.13,2.4a2.32,2.32,0,0,0,1.3,2.22,6.08,6.08,0,0,0,2.65.59,16.51,16.51,0,0,0,5.82-.5,8,8,0,0,0,4.65-3.37,10.24,10.24,0,0,0,1-2.62c.26-.94.48-1.9.8-2.8a7.4,7.4,0,0,1,.82-1.67c.9-1.35,2.35-2.34,3-3.81a2.4,2.4,0,0,0,.11-.23A5.13,5.13,0,0,0,348,322Z" style="fill:#f28f8f"></path><path d="M347.91,325.49c-.66,1.47-2.11,2.46-3,3.81a7.4,7.4,0,0,0-.82,1.67c-.32.9-.54,1.86-.8,2.8l1.32.34a7.83,7.83,0,0,0,3.29-2.52C348,329.18,347.93,326.7,347.91,325.49Z" style="fill:#37474f"></path><path d="M343.28,333.77l1.32.34-.52-3.14C343.76,331.87,343.54,332.83,343.28,333.77Z" style="fill:#263238"></path><path d="M348,322a12.67,12.67,0,0,0-1-2.4,6.91,6.91,0,0,1-1.15,3.62c-.9,1.44-2.09,2.69-3,4.15-1,1.79-1.59,3.89-3,5.43a6.47,6.47,0,0,1-5.42,2.11,2.86,2.86,0,0,1-2-.89,1.58,1.58,0,0,1-.33-.94,14.38,14.38,0,0,1-2.24,1.95c-.9.64-2,1.3-2.13,2.4a2.32,2.32,0,0,0,1.3,2.22,6.08,6.08,0,0,0,2.65.59,16.51,16.51,0,0,0,5.82-.5,8,8,0,0,0,4.65-3.37,10.24,10.24,0,0,0,1-2.62c.26-.94.48-1.9.8-2.8a7.4,7.4,0,0,1,.82-1.67c.9-1.35,2.35-2.34,3-3.81a2.4,2.4,0,0,0,.11-.23A5.13,5.13,0,0,0,348,322Z" style="fill:#455a64"></path><path d="M338.35,179.13c.36.83,1.33,1.22,1.8,2a2,2,0,0,1,0,2,1.93,1.93,0,0,1-3.4-.13,5.48,5.48,0,0,0,0,2.21,2.16,2.16,0,0,0,1.38,1.62,3.91,3.91,0,0,0-.88,4.09,4,4,0,0,0,3.35,2.55,6.1,6.1,0,0,0,2.69,5.37,8.72,8.72,0,0,0,5.82,1.35,19.12,19.12,0,0,0,5.84-1.71,21,21,0,0,0,8.86,1.32,8.12,8.12,0,0,0,5.23-2.08c1.33-1.39,1.64-3.87.22-5.17a2.9,2.9,0,0,0,3,0,2.59,2.59,0,0,0,1.34-2.49,2.63,2.63,0,0,0-1.78-2.21,2.23,2.23,0,0,0,1-2,2.07,2.07,0,0,0-1.43-1.65,1.81,1.81,0,0,1-.49,1.87,1.7,1.7,0,0,1-1.86.08,2.25,2.25,0,0,1-1-1.6,7.8,7.8,0,0,1,0-1.93,14.3,14.3,0,0,0-.64-6.57,6.65,6.65,0,0,0-4.76-4.25A10.94,10.94,0,0,0,350,164.46a7.27,7.27,0,0,0-5.23,3.89,12.27,12.27,0,0,0-2.9-.24,3.85,3.85,0,0,0-2.61,1,2.34,2.34,0,0,0-.57,2.6c.29.6.91,1.14.76,1.78s-.76.83-1.06,1.31a1.69,1.69,0,0,0,0,1.55,5.42,5.42,0,0,0,.93,1.3c.33.38.67.86.49,1.32S338.61,179.57,338.35,179.13Z" style="fill:#263238"></path><path d="M341.86,222q-.21,3.45-.44,6.88c-5.18,21.35-3.63,53.25-3.63,53.25L338,321a6.59,6.59,0,0,0,9.21-2c.88-9.57,5.33-24.6,4-36.34,1.77-9.25,3.11-22.41,3.11-22.41L358.63,283,367.7,327c4,1.69,7.56.53,8.71-1-.93-24.23-.53-35.89-4.27-47.09,1.16-30.06,2.09-43.66-5.24-54V221Z" style="fill:#E96AFF"></path><path d="M341.86,222q-.21,3.45-.44,6.88c-5.18,21.35-3.63,53.25-3.63,53.25L338,321a6.59,6.59,0,0,0,9.21-2c.88-9.57,5.33-24.6,4-36.34,1.77-9.25,3.11-22.41,3.11-22.41L358.63,283,367.7,327c4,1.69,7.56.53,8.71-1-.93-24.23-.53-35.89-4.27-47.09,1.16-30.06,2.09-43.66-5.24-54V221Z" style="opacity:0.1"></path><path d="M341.86,222q-.21,3.45-.44,6.88c-5.18,21.35-3.63,53.25-3.63,53.25L338,321a6.59,6.59,0,0,0,9.21-2c.88-9.57,5.33-24.6,4-36.34,1.77-9.25,3.11-22.41,3.11-22.41L358.63,283,367.7,327c4,1.69,7.56.53,8.71-1-.93-24.23-.53-35.89-4.27-47.09,1.16-30.06,2.09-43.66-5.24-54V221Z" style="fill:#fff;opacity:0.30000000000000004"></path><path d="M344.43,244.32a7.46,7.46,0,0,0,5.43,4.85l2.54,10.51a19.11,19.11,0,0,1,.5,3.28l.41,5.62c.6-4.74,1-8.32,1-8.32l-2.42-12.61A17.07,17.07,0,0,1,344.43,244.32Z" style="opacity:0.2"></path><path d="M343,234.62a7.79,7.79,0,0,1-3.76-7.13s4.41,2.32,6.38,1.08l-1-1.94a12.07,12.07,0,0,1,7.66,2.7,56.89,56.89,0,0,0,12.23-3.55,23.67,23.67,0,0,1,3.54-1.26,6.38,6.38,0,0,1,3.7.1,3.71,3.71,0,0,1,2.4,2.68,4,4,0,0,1-1.37,3.48,9.9,9.9,0,0,1-3.41,1.84C364.32,234.44,345.4,236.1,343,234.62Z" style="fill:#f28f8f"></path><path d="M373.5,200.27a6,6,0,0,0-4.7-3l-7.68-.67-2.58-.22v-8.31l-9,3.46v4.81h-5a8.12,8.12,0,0,0-7.62,5.3l-7.79,21,8.69,2.22,2.4-6.53c0,.38.08.76.14,1.14a7.62,7.62,0,0,0,2.46,4.8,10,10,0,0,0,4.72,1.81,35.08,35.08,0,0,0,13-.25,12.54,12.54,0,0,0,5.46-2.29v1.68l8.25,2.08,1.4-17.7A16.33,16.33,0,0,0,373.5,200.27Z" style="fill:#f28f8f"></path><path d="M340.14,213.84l-.14-.11a23.17,23.17,0,0,0-2.29,5.87,7.56,7.56,0,0,0-6.73,2,12.19,12.19,0,0,0-1.11,1.26l7.92,2,2.4-6.53A24.09,24.09,0,0,1,340.14,213.84Z" style="opacity:0.2"></path><path d="M338,224a5.24,5.24,0,0,0-3.94-3.26,5.59,5.59,0,0,0-4.92,1.95,3.87,3.87,0,0,0-.25,4.1,5.13,5.13,0,0,0,5.84,2.85C337,229,338.79,226.15,338,224Z" style="fill:#f28f8f"></path><path d="M338,224a5.26,5.26,0,0,0-2.36-2.69,5.85,5.85,0,0,0-.64,7.91l.21.23C337.21,228.55,338.73,226,338,224Z" style="opacity:0.2"></path><path d="M348.93,234.9v0h0v-.08l0,0v-.06l0,0h0l-6-11.42-.85.95,6,11.42a.56.56,0,0,1,.08.21h0a.23.23,0,0,1,0,.13h0l.85-1a.05.05,0,0,0,0,0v-.07Z" style="fill:#fff;opacity:0.15"></path><path d="M342.86,223.22l0,0,0,0,0,0,0,0,0,0,0,0,0,0,0,0,0,0,0,0,0,0,0,0,0,0v0l0,0h0l0,0h0v0h-.05v0h-.05v0h0l0,0,0,0,0,0-.09-.08h0l0,0,0,0h0v0h-.2l0,0h0l0,0h0l0,0,0,0,0,0,0,0,0,0,0,0h0l-7-4h0l0,0,0,0,0,0h0l0,0,0,0h-.25a.15.15,0,0,0-.1,0l-.85,1a.23.23,0,0,1,.21,0h0a1.24,1.24,0,0,1,.38.16l7,4a2.35,2.35,0,0,1,.4.27h0a3.9,3.9,0,0,1,.38.33h0q.18.18.33.36h0a2,2,0,0,1,.23.34l.85-.95Z" style="fill:#fff;opacity:0.2"></path><path d="M334.56,221.72a12.49,12.49,0,0,0-.29,2.26,8.32,8.32,0,0,0,2.13,4.87,2.42,2.42,0,0,0,.94.68,1.1,1.1,0,0,0,1.09-.16,1.59,1.59,0,0,0,.39-1.14,6,6,0,0,0-.08-1.84,2.61,2.61,0,0,0-.95-1.53,5.18,5.18,0,0,0-1.22-.55,3,3,0,0,1-1.08-.81Z" style="fill:#f28f8f"></path><path d="M367.85,199l.95-1.7-7.68-.67a14.56,14.56,0,0,1-4.45,3.89,14.81,14.81,0,0,1-7.18,1.89,4,4,0,0,1-2.6-.7,3.16,3.16,0,0,1-.74-3.39,6.4,6.4,0,0,1,1.11-2H345a24.31,24.31,0,0,0-6.14,8.8,10.46,10.46,0,0,0-1,4.68,5,5,0,0,0,2.25,4,23.59,23.59,0,0,0,.19,5.63,7.62,7.62,0,0,0,2.46,4.8,10,10,0,0,0,4.72,1.81,35.08,35.08,0,0,0,13-.25,12.54,12.54,0,0,0,5.46-2.29V206.26A14.86,14.86,0,0,1,367.85,199Z" style="fill:#455a64"></path><path d="M357.91,188.29c-2.69,5.22-4.37,5.34-8.36,5.8v-2.58Z" style="opacity:0.2"></path><path d="M367.85,199l.95-1.7-7.68-.67a14.56,14.56,0,0,1-4.45,3.89,14.81,14.81,0,0,1-7.18,1.89,4,4,0,0,1-2.6-.7,3.16,3.16,0,0,1-.74-3.39,6.4,6.4,0,0,1,1.11-2H345a24.31,24.31,0,0,0-6.14,8.8,10.46,10.46,0,0,0-1,4.68,5,5,0,0,0,2.25,4,23.59,23.59,0,0,0,.19,5.63,7.62,7.62,0,0,0,2.46,4.8,10,10,0,0,0,4.72,1.81,35.08,35.08,0,0,0,13-.25,12.54,12.54,0,0,0,5.46-2.29V206.26A14.86,14.86,0,0,1,367.85,199Z" style="fill:#fff;opacity:0.2"></path><path d="M341.62,176.21a32.66,32.66,0,0,0-.14,11.95,6.37,6.37,0,0,0,1.87,4c1.45,1.17,3.53,1,5.37.76a21.65,21.65,0,0,0,5.92-1.33,7.23,7.23,0,0,0,4.15-4.19,2.62,2.62,0,0,0,3.15-.51,4.65,4.65,0,0,0,1.16-3.17A3,3,0,0,0,362,181a2.4,2.4,0,0,0-2.06-.08,5.11,5.11,0,0,0-1.72,1.24,3.42,3.42,0,0,1-.82.7,1,1,0,0,1-1,0,1.5,1.5,0,0,1-.44-1.22,11.29,11.29,0,0,0-1.2-5.26,4.33,4.33,0,0,0-4.56-2.23,10.88,10.88,0,0,1-2.36.78,3.85,3.85,0,0,1-1.87-.62l0,0A2.74,2.74,0,0,0,341.62,176.21Z" style="fill:#f28f8f"></path><polygon points="347.29 181.11 344.9 185.13 347.75 185.66 347.29 181.11" style="fill:#f28f8f"></polygon><polygon points="347.29 181.11 344.9 185.13 347.75 185.66 347.29 181.11" style="opacity:0.1"></polygon><path d="M350.49,187.05l-2.16,1a1.4,1.4,0,0,0,1.64.47A1.28,1.28,0,0,0,350.49,187.05Z" style="fill:#f28f8f"></path><path d="M350.49,187.05l-2.16,1a1.4,1.4,0,0,0,1.64.47A1.28,1.28,0,0,0,350.49,187.05Z" style="opacity:0.30000000000000004"></path><path d="M349.22,188.64a1.27,1.27,0,0,0,.75-.07,1.16,1.16,0,0,0,.58-1.14,1.31,1.31,0,0,0-1.33,1.21Z" style="fill:#f28f8f"></path><path d="M349.22,188.64a1.27,1.27,0,0,0,.75-.07,1.16,1.16,0,0,0,.58-1.14,1.31,1.31,0,0,0-1.33,1.21Z" style="opacity:0.1"></path><path d="M351.41,181.27a.8.8,0,0,1-.73.89.82.82,0,0,1-.9-.73.83.83,0,0,1,.74-.9A.82.82,0,0,1,351.41,181.27Z" style="fill:#263238"></path><path d="M344.55,181.69a.82.82,0,1,1-.9-.73A.83.83,0,0,1,344.55,181.69Z" style="fill:#263238"></path><path d="M343.43,178.53,341.75,180a1.18,1.18,0,0,1,.22-1.31A1.39,1.39,0,0,1,343.43,178.53Z" style="fill:#263238"></path><path d="M350.39,177.73l1.93,1.07a1.17,1.17,0,0,0-.48-1.25A1.4,1.4,0,0,0,350.39,177.73Z" style="fill:#263238"></path><path d="M348.93,234.9v0h0v-.08l0,0v-.06l0,0h0l-6-11.42,0,0,0,0,0,0,0,0,0,0,0,0,0,0,0,0,0,0,0,0,0,0,0,0,0,0,0,0v0l0,0h0l0,0h0v0h-.05v0h-.05v0h0l0,0,0,0,0,0-.09-.08h0l0,0,0,0h0v0h-.2l0,0h0l0,0h0l0,0,0,0,0,0,0,0,0,0,0,0h0l-7-4h0l0,0,0,0,0,0h0l0,0,0,0h-.25a.15.15,0,0,0-.1,0l-.85,1s0,0,0,0-.08.16,0,.35l6,11.42a4,4,0,0,0,1.33,1.29l7,4c.36.21.58.21.61.07,0,0,0,0,0,.06h0l.85-1a.05.05,0,0,0,0,0v-.07Zm-15.64-16.18s0,0,0,0h0Zm8,4.61.19.17h0Zm.44.44.08.09h0Zm6.35,12.08a.53.53,0,0,0-.07-.23.56.56,0,0,1,.08.21h0Z" style="fill:#455a64"></path></g><g id="freepik--character-5--inject-4"><path d="M425.19,286.94l1.85,3.91-4.43,4.87.32,11.64L437.22,295a3.89,3.89,0,0,0,.95-4.6l-4.36-9.06Z" style="fill:#733d3c"></path><path d="M424.83,287.88c5.68-.49,9.54-6.37,9.54-6.37-5.07-10.4-9.5-22-18.36-19.2Z" style="fill:#fff"></path><path d="M419.79,273.26l5,14.62a10.69,10.69,0,0,0,4.89-1.8A29.64,29.64,0,0,0,419.79,273.26Z" style="opacity:0.1"></path><path d="M402.69,410.1a4.61,4.61,0,0,1-4.15,2.79,20.88,20.88,0,0,1-5.25-.67c-3.9-.71-7.65,0-11.54-.1a16.63,16.63,0,0,1-3.8-.41,6.33,6.33,0,0,1-3.25-1.92,4.25,4.25,0,0,1-.93-2,4,4,0,0,0,.93,3.17,6.33,6.33,0,0,0,3.25,1.92,16.63,16.63,0,0,0,3.8.41c3.89.09,7.64-.61,11.54.1a20.88,20.88,0,0,0,5.25.67,4.61,4.61,0,0,0,4.15-2.79,4.54,4.54,0,0,0,.14-1.8A3.88,3.88,0,0,1,402.69,410.1Z" style="fill:#37474f"></path><path d="M402.59,406.87l-.72-3.55a5.17,5.17,0,0,0-.6-1.8,1.77,1.77,0,0,0-1.57-.9c-2.14-.29-5.14-1.06-6.92.16a16,16,0,0,1-9.54,2.78,33.5,33.5,0,0,0-5.29-.22c-1.75.22-3.57,1.19-4.09,2.88a3.48,3.48,0,0,0-.09,1.54,4.25,4.25,0,0,0,.93,2,6.33,6.33,0,0,0,3.25,1.92,16.63,16.63,0,0,0,3.8.41c3.89.09,7.64-.61,11.54.1a20.88,20.88,0,0,0,5.25.67,4.61,4.61,0,0,0,4.15-2.79,3.88,3.88,0,0,0,.14-.66A8.28,8.28,0,0,0,402.59,406.87Z" style="fill:#455a64"></path><path d="M392.27,397.07l-.16,4.62a1.82,1.82,0,0,0,1.7,1.88,28.82,28.82,0,0,0,4.65,0,2.62,2.62,0,0,0,2.38-2.47l.18-3.41Z" style="fill:#733d3c"></path><path d="M422.4,394.62a3.61,3.61,0,0,1-.62,1.9,3.46,3.46,0,0,1-2.18,1.23,5.5,5.5,0,0,1-5.4-2.22c-.58-.84-.91-1.83-1.46-2.69a12.31,12.31,0,0,0-3-2.95,12.54,12.54,0,0,1-3.06-2.93,4.31,4.31,0,0,1-.58-3.9,3,3,0,0,0-.29.49,4.48,4.48,0,0,0,.55,4.16,13.13,13.13,0,0,0,3.12,3,12.75,12.75,0,0,1,3.09,3c.56.89.9,1.91,1.49,2.77a5.58,5.58,0,0,0,5.51,2.3,3.56,3.56,0,0,0,2.23-1.27,4.32,4.32,0,0,0,.64-2.65C422.41,394.81,422.4,394.72,422.4,394.62Z" style="fill:#37474f"></path><path d="M421,388.83c-1.41-2.46-4.3-4.25-6.53-6a8.42,8.42,0,0,0-4.33-2,4,4,0,0,0-4,2.06s0,.09-.05.13a4.31,4.31,0,0,0,.58,3.9,12.54,12.54,0,0,0,3.06,2.93,12.31,12.31,0,0,1,3,2.95c.55.86.88,1.85,1.46,2.69a5.5,5.5,0,0,0,5.4,2.22,3.46,3.46,0,0,0,2.18-1.23,3.61,3.61,0,0,0,.62-1.9c0-.22,0-.45,0-.67A10.81,10.81,0,0,0,421,388.83Z" style="fill:#455a64"></path><path d="M414.91,386.69v4.2a7,7,0,0,0,6.53-.29l.39-3.77Z" style="fill:#733d3c"></path><path d="M422.93,310.6c1.26,3.78-.28,21.71-1,38.9,2.73,6.5,2,24.95.42,38.06,0,0-2.72,1.68-7.65,0l-6.19-36.17-.86-20.45s-1.55,18.14-3.33,29.78c1.68,8.91,1.26,10.59-2.88,38a10.34,10.34,0,0,1-9.28,0c-2.35-38.51-1.48-73.61-1-86.23Z" style="fill:#37474f"></path><path d="M408.16,343.39l-.7-16.67c4.31,0,8.3-3.22,11.34-6.27a19.29,19.29,0,0,1-8.58,7.51Z" style="opacity:0.30000000000000004"></path><path d="M390.44,280.86v32.65c19.23,8.06,31.69.78,33.38-3-.89-13.3,2.26-28.84,2-35.45s-1.05-14.05-11.29-12.55l-10.89,1.06-5.53,1.34Z" style="fill:#fff"></path><path d="M390.44,285.07l7.88-8.67a37.62,37.62,0,0,1-7.88,16.19Z" style="opacity:0.1"></path><path d="M380.24,279.09l-3.67,3.82-8.8-11.66a33.83,33.83,0,0,0,2.15-9.67,1,1,0,0,0-1-1.09h0a1,1,0,0,0-.94.59l-1.63,3.43h0a1.58,1.58,0,0,1-1-1l-.32-.91a5.46,5.46,0,0,1-.32-1.88v-2.26a1.82,1.82,0,0,0-2.69-1.58,8.83,8.83,0,0,0-2.66,2.2,4.79,4.79,0,0,0-1.09,3.05v3.05a6.62,6.62,0,0,0,.41,2.29l1.59,4.37a6,6,0,0,0,.54,1.15l11.35,19a5.41,5.41,0,0,0,8.23,1.27l7.23-6.42Z" style="fill:#8c5554"></path><path d="M374.32,287.59a10.94,10.94,0,0,1,2.25-4.68l-1-1.35C374.79,283,373.71,285.72,374.32,287.59Z" style="fill:#733d3c"></path><path d="M379.33,279.11,389.66,269a14.39,14.39,0,0,1,8.48-4.07l.19,0c4.37,9.58-1.41,14.25-1.41,14.25l-9.6,8.82A17.37,17.37,0,0,1,379.33,279.11Z" style="fill:#fff"></path><path d="M398.42,241.14a1.53,1.53,0,0,1-.22-1.7,2,2,0,0,1-1.62-.23,1.49,1.49,0,0,1-.71-1.39,1.24,1.24,0,0,1,1-1.1,2.06,2.06,0,0,1-1.24-.85,2,2,0,0,1-.39-1.45,2.66,2.66,0,0,1,1.82-2,6.33,6.33,0,0,1,2.84-.15,2.29,2.29,0,0,1,1.2-2.69,2.76,2.76,0,0,1,2.6.43,8,8,0,0,1,1.85,2,8.1,8.1,0,0,1,11.54,4.5,5.53,5.53,0,0,1,3.61,3.76,8.76,8.76,0,0,1-.31,5.28,23.38,23.38,0,0,1-2.47,4.76c-.45.73-.9,1.44-1.36,2.16-.57.91-2,3.15-2.6,4A8.45,8.45,0,0,1,406,256a13.76,13.76,0,0,1-5.18-6.42A45,45,0,0,1,398.42,241.14Z" style="fill:#263238"></path><path d="M397.18,246.74l-1.72,3,1.7.62A33.44,33.44,0,0,1,397.18,246.74Z" style="fill:#733d3c"></path><path d="M398.42,241.14a24.21,24.21,0,0,0-1.24,5.6,33.44,33.44,0,0,0,0,3.61,34.4,34.4,0,0,0,.59,5.06,5.39,5.39,0,0,0,1,2.53,4,4,0,0,0,2.76,1.27,12,12,0,0,0,3.09-.3v4.91c3.72.88,6.8,1.26,9.72-1l-.31-6.31a9,9,0,0,1-5.24-.83c-2.57-1.38-3.29-3.6-2.93-4.84a1.93,1.93,0,0,0,2,.71,2.67,2.67,0,0,0,1.67-1.33,5.4,5.4,0,0,0,.62-2.08,3.77,3.77,0,0,0-.38-2.59,2.7,2.7,0,0,0-2.91-1,4.14,4.14,0,0,0-2.45,2,6.16,6.16,0,0,0-.43.94.58.58,0,0,1-1.13-.15,7.73,7.73,0,0,1,.74-4.1,3.17,3.17,0,0,1-1.38.32,1.71,1.71,0,0,1-1.31-.62,1.16,1.16,0,0,1-.05-1.39A2.29,2.29,0,0,1,398.42,241.14Z" style="fill:#8c5554"></path></g><g id="freepik--character-3--inject-4"><path d="M310.07,413.47a5.07,5.07,0,0,1-3.62,2.18,16.62,16.62,0,0,1-5-.32,33.38,33.38,0,0,0-7.41-.19,37.61,37.61,0,0,1-4.61.33,7.22,7.22,0,0,1-4.33-1.37,4.41,4.41,0,0,1-1.63-2.76,4.15,4.15,0,0,0,1.63,3.72,7.3,7.3,0,0,0,4.33,1.38,39.69,39.69,0,0,0,4.61-.33,32.79,32.79,0,0,1,7.41.19,17.48,17.48,0,0,0,5.08.43,5,5,0,0,0,3.61-2.18Z" style="fill:#455a64"></path><path d="M292.09,410.54c1.38,0,.87-2.05,2.19-3.42-.54,0-1.08,0-1.61,0C291.48,408.86,291.15,410.54,292.09,410.54Z" style="fill:#fff"></path><path d="M295,410.43c1.39,0,1-2.44,2.39-3.86a7.9,7.9,0,0,1-1,.27c-.27.06-.54.11-.82.15C294.36,408.71,294,410.43,295,410.43Z" style="fill:#fff"></path><path d="M308.64,405.76a1.86,1.86,0,0,0-.72-1.13l-7.47-.19a6.43,6.43,0,0,1-3.1,2.13c-1.37,1.42-1,3.86-2.39,3.86-.95,0-.6-1.72.62-3.44-.43.06-.87.11-1.3.13-1.32,1.37-.81,3.42-2.19,3.42-.94,0-.61-1.68.58-3.38h-1.05l-1,0c-2.74,2.17-3,4.53-2.62,8.22a8.56,8.56,0,0,0,1.43.15,37.61,37.61,0,0,0,4.61-.33,33.38,33.38,0,0,1,7.41.19,16.62,16.62,0,0,0,5,.32,5.07,5.07,0,0,0,3.62-2.18Z" style="fill:#455a64"></path><path d="M290.66,407.1a11.39,11.39,0,0,0-3.73,0,4.44,4.44,0,0,0-3.36,2.92,3.46,3.46,0,0,0-.06,1.32,4.41,4.41,0,0,0,1.63,2.76,6.35,6.35,0,0,0,2.9,1.22C287.68,411.63,287.92,409.27,290.66,407.1Z" style="fill:#fff"></path><path d="M300.24,402.32v3.59a1.48,1.48,0,0,0,1.48,1.48h3.76a2.43,2.43,0,0,0,2.43-2.34l.09-2.73Z" style="fill:#ffa8a7"></path><path d="M325.13,400.72a2.79,2.79,0,0,1-2.27,1.58,4.84,4.84,0,0,1-2.87-.7c-1.29-.83-1.8-2.12-2.68-3.29a20,20,0,0,0-3.12-3.05,10.32,10.32,0,0,1-3-3.46,4.6,4.6,0,0,1-.35-1.27,4.45,4.45,0,0,0,.35,2.44,10.32,10.32,0,0,0,3,3.46,20,20,0,0,1,3.12,3.05c.88,1.17,1.39,2.46,2.68,3.28a4.77,4.77,0,0,0,2.87.71,2.78,2.78,0,0,0,2.27-1.59,6.23,6.23,0,0,0,.13-2A2.33,2.33,0,0,1,325.13,400.72Z" style="fill:#455a64"></path><path d="M316.64,392.82a.91.91,0,0,0-.18.61.63.63,0,0,0,.41.47.91.91,0,0,0,.84-.22,5.43,5.43,0,0,0,.58-.69,4.4,4.4,0,0,1,1.92-1.41,4.55,4.55,0,0,1,1.15-.25l-.93-.85a4.62,4.62,0,0,0-1.71.42A4.71,4.71,0,0,0,316.64,392.82Z" style="fill:#fff"></path><path d="M316.84,389.85a4.6,4.6,0,0,0-2.08,1.92.88.88,0,0,0-.18.61.64.64,0,0,0,.4.47.88.88,0,0,0,.84-.22,3.91,3.91,0,0,0,.59-.69,4.32,4.32,0,0,1,1.92-1.4,4.19,4.19,0,0,1,1.89-.25l-.93-.85A4.7,4.7,0,0,0,316.84,389.85Z" style="fill:#fff"></path><path d="M318.7,388.91a9.72,9.72,0,0,0-2.93-2,3.92,3.92,0,0,0-4,.56,3.49,3.49,0,0,0-.89,3,4.6,4.6,0,0,0,.35,1.27,6.64,6.64,0,0,0,.93,1.47C312.49,390.05,315.28,388.55,318.7,388.91Z" style="fill:#fff"></path><path d="M325.2,397.56a6.6,6.6,0,0,0-.73-3.14l-1.81-1.91-1.3-1.18a4.55,4.55,0,0,0-1.15.25,4.4,4.4,0,0,0-1.92,1.41,5.43,5.43,0,0,1-.58.69.91.91,0,0,1-.84.22.63.63,0,0,1-.41-.47.91.91,0,0,1,.18-.61,4.71,4.71,0,0,1,2.08-1.92,4.62,4.62,0,0,1,1.71-.42l-.21-.19a4.19,4.19,0,0,0-1.89.25,4.32,4.32,0,0,0-1.92,1.4,3.91,3.91,0,0,1-.59.69.88.88,0,0,1-.84.22.64.64,0,0,1-.4-.47.88.88,0,0,1,.18-.61,4.6,4.6,0,0,1,2.08-1.92,4.7,4.7,0,0,1,2.45-.41l0,0-.56-.5c-3.42-.36-6.21,1.14-6.57,4.36a15.52,15.52,0,0,0,2.06,2,20,20,0,0,1,3.12,3.05c.88,1.17,1.39,2.46,2.68,3.29a4.84,4.84,0,0,0,2.87.7,2.79,2.79,0,0,0,2.27-1.58,2.33,2.33,0,0,0,.13-.84A20.93,20.93,0,0,0,325.2,397.56Z" style="fill:#455a64"></path><path d="M318.65,391.87l.21,3.86a5.15,5.15,0,0,0,5.86-.25l.16-3.61Z" style="fill:#ffa8a7"></path><path d="M323.45,308.39a3.57,3.57,0,0,1-.37-1.33l-.21-3.31-23.61,1.52c-.32,1.65-.63,3.68-.94,6A35.08,35.08,0,0,0,323.45,308.39Z" style="fill:#ff9192"></path><path d="M323,295l5,9.72-4.57,7.65,5.05,8,7.63-11.85a6.64,6.64,0,0,0,.78-5.47,93.33,93.33,0,0,0-5-13.49Z" style="fill:#ffa8a7"></path><path d="M319,276.25c5.79-1.08,9.1.85,14,13.95-2,4.48-10.47,6.13-10.47,6.13Z" style="fill:#E96AFF"></path><path d="M319,276.25c5.79-1.08,9.1.85,14,13.95-2,4.48-10.47,6.13-10.47,6.13Z" style="fill:#fff;opacity:0.4"></path><polygon points="299.45 262.64 297.5 266.03 299.64 266.82 299.45 262.64" style="fill:#ff9192"></polygon><path d="M299.23,261.13c.31-3,1.19-5.78,3.12-7.2a16.06,16.06,0,0,0,2.23,10.64A4.66,4.66,0,0,1,306,262a2.47,2.47,0,0,1,4.16.93,3.6,3.6,0,0,1-4.51,4.77,7,7,0,0,0,5.33,5.41,8.94,8.94,0,0,0,5.18-.5l.8,4c-3.26,3.49-8.84,1.15-8.84,1.15l-.74-4c-6.42.38-7,.27-7.72-3.26A34.67,34.67,0,0,1,299.23,261.13Z" style="fill:#ffa8a7"></path><path d="M298.47,254a10.33,10.33,0,0,1,6.12-5.6,17.47,17.47,0,0,1,8.44-.64,15.21,15.21,0,0,1,5,1.48,8.55,8.55,0,0,1,3.72,3.71l.33-2.74a2,2,0,0,1,1.48,1.33,2.16,2.16,0,0,1-.5,2h.25a8.62,8.62,0,0,1,8.62,8.62v14.62a8.46,8.46,0,0,1-8.46-8.46V265a16,16,0,0,1-4.87,6.34,10.9,10.9,0,0,1-2.44,1.33,8.94,8.94,0,0,1-5.18.5,7,7,0,0,1-5.33-5.41,3.6,3.6,0,0,0,4.51-4.77A2.47,2.47,0,0,0,306,262a4.66,4.66,0,0,0-1.45,2.55,16.06,16.06,0,0,1-2.23-10.64c-1.93,1.42-2.81,4.22-3.12,7.2A7.59,7.59,0,0,1,298.47,254Z" style="fill:#E96AFF"></path><path d="M298.47,254a10.33,10.33,0,0,1,6.12-5.6,17.47,17.47,0,0,1,8.44-.64,15.21,15.21,0,0,1,5,1.48,8.55,8.55,0,0,1,3.72,3.71l.33-2.74a2,2,0,0,1,1.48,1.33,2.16,2.16,0,0,1-.5,2h.25a8.62,8.62,0,0,1,8.62,8.62v14.62a8.46,8.46,0,0,1-8.46-8.46V265a16,16,0,0,1-4.87,6.34,10.9,10.9,0,0,1-2.44,1.33,8.94,8.94,0,0,1-5.18.5,7,7,0,0,1-5.33-5.41,3.6,3.6,0,0,0,4.51-4.77A2.47,2.47,0,0,0,306,262a4.66,4.66,0,0,0-1.45,2.55,16.06,16.06,0,0,1-2.23-10.64c-1.93,1.42-2.81,4.22-3.12,7.2A7.59,7.59,0,0,1,298.47,254Z" style="opacity:0.4"></path><path d="M308.15,277.79,301.83,279c-1.4,2.56-2.82,5-4.22,7.51-1.05,1.93-2.13,4-2.05,6.17a6.26,6.26,0,0,0,3.78,5.44l-.73,8.63c9.93,3,22.06.37,24.72-1.93.79-3.61,1.48-7.46,2.26-11.08a36.57,36.57,0,0,0,1.07-7.12,12.57,12.57,0,0,0-1.66-6.91l0-.06a7.74,7.74,0,0,0-7.76-3.33Z" style="fill:#E96AFF"></path><path d="M308.15,277.79,301.83,279c-1.4,2.56-2.82,5-4.22,7.51-1.05,1.93-2.13,4-2.05,6.17a6.26,6.26,0,0,0,3.78,5.44l-.73,8.63c9.93,3,22.06.37,24.72-1.93.79-3.61,1.48-7.46,2.26-11.08a36.57,36.57,0,0,0,1.07-7.12,12.57,12.57,0,0,0-1.66-6.91l0-.06a7.74,7.74,0,0,0-7.76-3.33Z" style="opacity:0.1"></path><path d="M323.82,309a3.42,3.42,0,0,1-.37-.61,35.08,35.08,0,0,1-25.13,2.86c-1.78,13.25-3.31,35.69-2.37,50.49.78,17.23,3.95,41.63,3.95,41.63,4.13,1.24,7.24.48,8.41-.41,1.38-17.1,4.41-28.81,2.07-40.12C311.94,354.94,313,345,313,345l1.19,17.47,4.05,30.69a7.25,7.25,0,0,0,7.26-.37c2.94-17.55,4-29.44,1.47-38.16C330.84,325.84,331,318.47,323.82,309Z" style="fill:#E96AFF"></path><path d="M323.82,309a3.42,3.42,0,0,1-.37-.61,35.08,35.08,0,0,1-25.13,2.86c-1.78,13.25-3.31,35.69-2.37,50.49.78,17.23,3.95,41.63,3.95,41.63,4.13,1.24,7.24.48,8.41-.41,1.38-17.1,4.41-28.81,2.07-40.12C311.94,354.94,313,345,313,345l1.19,17.47,4.05,30.69a7.25,7.25,0,0,0,7.26-.37c2.94-17.55,4-29.44,1.47-38.16C330.84,325.84,331,318.47,323.82,309Z" style="opacity:0.5"></path><path d="M314.69,341.56l2.16-9.09a12.74,12.74,0,0,0,8.56-5.54,17.35,17.35,0,0,1-10.49,3.7L313,345l.42,6.15.17-2.24A47,47,0,0,1,314.69,341.56Z" style="opacity:0.30000000000000004"></path><path d="M285.29,279.63a51.34,51.34,0,0,1-9.79-1.07s-7.72-8.9-10-12.86c.53-2.12,1.08-4.2,1.61-6.31a3.5,3.5,0,0,0-.13-2.17,14.41,14.41,0,0,0-1.4-2.74,5,5,0,0,0-3.21-2.27,3.1,3.1,0,0,0-3.35,1.68,3.41,3.41,0,0,0,.21,2.65,9.93,9.93,0,0,0,1.59,2.21,8.32,8.32,0,0,0-.12,7.57l6.77,17.52a6.56,6.56,0,0,0,5,4.1l10.88,1.9c1.17-1.27,4.65-2.55,5-4.24C288.81,283.72,286,281.43,285.29,279.63Z" style="fill:#ffa8a7"></path><path d="M300.84,278.91c-3.91.19-9.78.84-15.55.72a9.6,9.6,0,0,1-1.92,10.21L297,292.21a5.82,5.82,0,0,0,6.55-4.3c.43-1.72.88-3.16,1.14-4.83A3.66,3.66,0,0,0,300.84,278.91Z" style="fill:#E96AFF"></path><path d="M300.84,278.91c-3.91.19-9.78.84-15.55.72a9.6,9.6,0,0,1-1.92,10.21L297,292.21a5.82,5.82,0,0,0,6.55-4.3c.43-1.72.88-3.16,1.14-4.83A3.66,3.66,0,0,0,300.84,278.91Z" style="fill:#fff;opacity:0.4"></path></g><g id="freepik--character-2--inject-4"><path d="M245.82,321.06l1.85,3.9-4.43,4.88.32,11.64,14.29-12.41a3.86,3.86,0,0,0,.94-4.59l-4.35-9.06Z" style="fill:#ffbea7"></path><path d="M250.22,328.45a9,9,0,0,1-2.55-3.49l-1.1,1.22A5.65,5.65,0,0,0,250.22,328.45Z" style="fill:#e39d84"></path><path d="M245.46,322c5.67-.5,9.54-6.38,9.54-6.38-5.08-10.39-9.51-21.95-18.37-19.19Z" style="fill:#E96AFF"></path><path d="M245.46,322c5.67-.5,9.54-6.38,9.54-6.38-5.08-10.39-9.51-21.95-18.37-19.19Z" style="opacity:0.2"></path><path d="M223.32,444.21a4.6,4.6,0,0,1-4.15,2.79,20.38,20.38,0,0,1-5.25-.67c-3.9-.71-7.66,0-11.55-.1a16.61,16.61,0,0,1-3.79-.41,6.27,6.27,0,0,1-3.25-1.91,4.23,4.23,0,0,1-.93-2,4,4,0,0,0,.93,3.18,6.27,6.27,0,0,0,3.25,1.91,16.61,16.61,0,0,0,3.79.41c3.89.09,7.65-.61,11.55.1a20.38,20.38,0,0,0,5.25.67,4.6,4.6,0,0,0,4.15-2.79,4.54,4.54,0,0,0,.13-1.8A3.08,3.08,0,0,1,223.32,444.21Z" style="fill:#455a64"></path><path d="M223.22,441l-.72-3.54a5.37,5.37,0,0,0-.6-1.81,1.79,1.79,0,0,0-1.58-.9c-2.13-.28-5.13-1.05-6.91.17a15.92,15.92,0,0,1-9.55,2.77,32.22,32.22,0,0,0-5.28-.21c-1.75.21-3.57,1.19-4.09,2.87a3.22,3.22,0,0,0-.09,1.54,4.23,4.23,0,0,0,.93,2,6.27,6.27,0,0,0,3.25,1.91,16.61,16.61,0,0,0,3.79.41c3.89.09,7.65-.61,11.55.1a20.38,20.38,0,0,0,5.25.67,4.6,4.6,0,0,0,4.15-2.79,3.08,3.08,0,0,0,.13-.66A8.33,8.33,0,0,0,223.22,441Z" style="fill:#455a64"></path><path d="M212.89,431.19l-.15,4.61a1.84,1.84,0,0,0,1.7,1.89,28.81,28.81,0,0,0,4.65-.05,2.63,2.63,0,0,0,2.38-2.47l.18-3.41Z" style="fill:#ffa8a7"></path><path d="M243,428.73a3.55,3.55,0,0,1-.61,1.91,3.45,3.45,0,0,1-2.18,1.22,5.51,5.51,0,0,1-5.41-2.22c-.58-.84-.91-1.83-1.46-2.69a12.15,12.15,0,0,0-3-2.95,12.83,12.83,0,0,1-3.05-2.92,4.33,4.33,0,0,1-.58-3.91,3.5,3.5,0,0,0-.29.49,4.42,4.42,0,0,0,.55,4.16,13.12,13.12,0,0,0,3.11,3,12.4,12.4,0,0,1,3.1,3c.56.89.89,1.91,1.49,2.78a5.58,5.58,0,0,0,5.51,2.29,3.53,3.53,0,0,0,2.22-1.26A4.29,4.29,0,0,0,243,429C243,428.93,243,428.83,243,428.73Z" style="fill:#455a64"></path><path d="M241.62,422.94c-1.4-2.46-4.29-4.25-6.52-6a8.36,8.36,0,0,0-4.33-2,4.06,4.06,0,0,0-4,2.05.93.93,0,0,0,0,.13,4.33,4.33,0,0,0,.58,3.91,12.83,12.83,0,0,0,3.05,2.92,12.15,12.15,0,0,1,3,2.95c.55.86.88,1.85,1.46,2.69a5.51,5.51,0,0,0,5.41,2.22,3.45,3.45,0,0,0,2.18-1.22,3.55,3.55,0,0,0,.61-1.91c0-.22,0-.44,0-.66A10.83,10.83,0,0,0,241.62,422.94Z" style="fill:#455a64"></path><path d="M235.54,420.81V425a7,7,0,0,0,6.53-.29l.39-3.77Z" style="fill:#ffa8a7"></path><path d="M243.56,344.72c1.26,3.77-.29,21.7-1,38.89,2.72,6.5,2,25,.42,38.06,0,0-2.73,1.68-7.66,0l-6.18-36.17-.86-20.44s-1.55,18.13-3.33,29.77c1.67,8.91,1.25,10.59-2.89,38a10.33,10.33,0,0,1-9.28,0c-2.34-38.51-1.48-73.6-1-86.22Z" style="fill:#455a64"></path><path d="M228.78,377.51l-.7-16.68c4.31,0,8.31-3.22,11.35-6.27a19.29,19.29,0,0,1-8.58,7.51Z" style="opacity:0.30000000000000004"></path><path d="M211.07,315v32.66c19.23,8.05,31.68.78,33.38-3-.89-13.29,2.25-28.84,2-35.45s-1.05-14-11.29-12.55l-10.9,1.06L218.75,299Z" style="fill:#E96AFF"></path><path d="M178,292.66l-.51,2.58a5.87,5.87,0,0,0,.08,2.67l2.35,8.72,10.94,20.78a5.86,5.86,0,0,0,9.08,1.66l7.35-6.52-7.85-8.33-3.92,4.08-10.12-13.41,1.89-3.33a4.42,4.42,0,0,0,.55-2.59l-.25-2.76a1,1,0,0,0-.9-.86h0a1,1,0,0,0-1,.77l-.45,2.4a1.85,1.85,0,0,1-.43.89h0a1.88,1.88,0,0,1-2.7.12l-1.82-1.73Z" style="fill:#ffbea7"></path><path d="M193.09,323.31a11.86,11.86,0,0,1,2.4-5l-1.08-1.43C193.6,318.38,192.45,321.31,193.09,323.31Z" style="fill:#e39d84"></path><path d="M198.45,314.25l11-10.85a15.5,15.5,0,0,1,9.07-4.35l.2,0c4.67,10.23-1.5,15.23-1.5,15.23L207,323.67A18.49,18.49,0,0,1,198.45,314.25Z" style="fill:#E96AFF"></path><path d="M198.45,314.25l11-10.85a15.5,15.5,0,0,1,9.07-4.35l.2,0c4.67,10.23-1.5,15.23-1.5,15.23L207,323.67A18.49,18.49,0,0,1,198.45,314.25Z" style="opacity:0.2"></path><path d="M235.17,291.4a2.91,2.91,0,0,0,2.12-.72,2.08,2.08,0,0,0,.51-1.83,2,2,0,0,0,1.46-1.19,2.27,2.27,0,0,0-.34-2,3.32,3.32,0,0,0,2.17-1.77,3.52,3.52,0,0,0,.1-2.86,3.11,3.11,0,0,0,2.17-2.12,3.34,3.34,0,0,0-.62-3.1,4.18,4.18,0,0,0,.49-4.17,4.39,4.39,0,0,0-3.58-2.42,4.31,4.31,0,0,0-1.41-3.86,4.17,4.17,0,0,0-4-.78,3.8,3.8,0,0,0-6.34-1.08,2.88,2.88,0,0,0-2.56-.95,3,3,0,0,0-2.32,1.53,3.89,3.89,0,0,0-5.5,3.73,2.3,2.3,0,0,0-1.65,2.26,2.44,2.44,0,0,0,1.9,2.19,53.94,53.94,0,0,0,5.11,15c1.07,2.1,2.4,4.23,4.49,5.32C229.68,293.73,233.23,293.06,235.17,291.4Z" style="fill:#455a64"></path><polygon points="217.03 279.1 214.78 283.02 217.25 283.93 217.03 279.1" style="fill:#e39d84"></polygon><path d="M217.81,272.27a36.38,36.38,0,0,0-.65,16.66,5.61,5.61,0,0,0,1,2.64,4.13,4.13,0,0,0,2.86,1.32,12.41,12.41,0,0,0,3.21-.31v5.1c3.88.91,7.86,1.28,10.9-1.06V291.4a13.87,13.87,0,0,1-6.76.42c-2.68-1.44-3.22-6.33-2.84-7.62a2,2,0,0,0,2.09.74,2.82,2.82,0,0,0,1.74-1.38,5.87,5.87,0,0,0,.65-2.18,4,4,0,0,0-.4-2.69,2.84,2.84,0,0,0-3-1,4.35,4.35,0,0,0-2.55,2.14,7.1,7.1,0,0,0-.45,1,.6.6,0,0,1-1.17-.15,8.06,8.06,0,0,1,.76-4.27A2.92,2.92,0,0,1,221,275a2.75,2.75,0,0,1-.42-2.45A8.2,8.2,0,0,1,217.81,272.27Z" style="fill:#ffbea7"></path><polygon points="184.63 303.94 183.89 304.11 189.21 301.04 189.95 300.87 184.63 303.94" style="fill:#455a64"></polygon><path d="M184.28,304.81a.57.57,0,0,1-.08-.13A.57.57,0,0,0,184.28,304.81Z" style="fill:none"></path><path d="M177.68,290.11h0a.57.57,0,0,1,0-.13h0A.57.57,0,0,0,177.68,290.11Z" style="fill:none"></path><path d="M177.69,290s0,0,0,0,0,0,0,0Z" style="fill:none"></path><path d="M184.52,304.92h0Z" style="fill:none"></path><path d="M184.32,304.84l.07.05Z" style="fill:none"></path><polygon points="183.82 287.26 183.82 287.26 183.82 287.26 183.82 287.26" style="fill:#455a64"></polygon><polygon points="178.51 290.33 178.51 290.33 183.82 287.26 183.82 287.26 183.82 287.26 178.51 290.33" style="fill:#455a64"></polygon><polygon points="178.51 290.33 183.52 301.47 184.63 303.94 189.95 300.87 183.82 287.26 178.51 290.33" style="fill:#E96AFF"></polygon><path d="M190.73,300.91l-6.47-14.38a.36.36,0,0,0-.48-.22l-5.92,3.43a.39.39,0,0,0-.1.08l0,0,0,.09s0,0,0,0h0a.57.57,0,0,0,0,.13s0,0,0,0a.28.28,0,0,0,0,.15l6.47,14.38a.57.57,0,0,0,.08.13l0,0,.07.05.05,0h.12a.2.2,0,0,0,.11,0l5.93-3.42A.44.44,0,0,0,190.73,300.91Zm-6.91-13.65h0L190,300.87l-5.32,3.07h0l-1.11-2.47-5-11.14h0l5.31-3.07Z" style="fill:#455a64"></path><path d="M184.44,304.91l-.05,0-.07-.05,0,0a.57.57,0,0,1-.08-.13l-6.47-14.38a.28.28,0,0,1,0-.15s0,0,0,0h0a.57.57,0,0,1,0-.13h0s0,0,0,0l0-.09,0,0a.39.39,0,0,1,.1-.08l5.92-3.43.08,0-.74.17-.08,0-5.92,3.43a.39.39,0,0,0-.1.08l0,0a.61.61,0,0,0-.05.12h0a.28.28,0,0,0,0,.09v.08a.28.28,0,0,0,0,.15l6.47,14.38a.36.36,0,0,0,.4.24l.74-.17h-.16Z" style="fill:#37474f"></path></g><g id="freepik--speech-bubbles--inject-4"><path d="M271.17,51.15a.89.89,0,0,0-.45-.78h0l-4.07-2.26h0a.89.89,0,0,0-.88,0L215.89,76.92a2.75,2.75,0,0,0-1.36,2.37l0,10.34-9.62,10c-.87.9-1,2.24-.29,2.46l3.84,2.11a.59.59,0,0,0,.53.17l5.58-.68,0,7.6a.91.91,0,0,0,.45.77h0l4,2.25.06,0,0,0a.91.91,0,0,0,.83,0L269.9,85.46a2.7,2.7,0,0,0,1.36-2.36ZM219.33,79.71a.94.94,0,0,0-.1.1A.94.94,0,0,1,219.33,79.71Zm-.27.33-.06.1Zm-.38.92,0,.11Zm.85-1.45.1-.09Z" style="fill:#E96AFF"></path><path d="M218.7,113.5a.9.9,0,0,0,.43.77l-4-2.25h0a.91.91,0,0,1-.45-.77l0-7.6,4.07-.49Z" style="opacity:0.1"></path><path d="M215.89,76.92,265.74,48.1a.89.89,0,0,1,.88,0h0l4.07,2.26h0a.88.88,0,0,0-.91,0L220,79.19a2.71,2.71,0,0,0-1.16,1.32l-4-2.34A2.82,2.82,0,0,1,215.89,76.92Z" style="fill:#fff;opacity:0.2"></path><path d="M214.56,89.63l0-10.34a2.81,2.81,0,0,1,.24-1.12l4,2.34a2.79,2.79,0,0,0-.2,1l0,10.34-4.08-2.26Z" style="fill:#fff;opacity:0.1"></path><path d="M204.94,99.58l9.62-10,4.08,2.26h0l-9.63,10c-.75.77-.92,1.87-.52,2.3L204.65,102C204,101.82,204.07,100.48,204.94,99.58Z" style="fill:#fff;opacity:0.05"></path><polygon points="234.89 83.22 234.92 94.64 232.11 96.26 232.1 91.81 228.27 94.01 228.29 98.47 225.47 100.09 225.44 88.67 228.25 87.05 228.27 91.33 232.09 89.13 232.08 84.84 234.89 83.22" style="fill:#fff"></polygon><path d="M244.64,84.61c0,.22,0,.53,0,.78L239,88.62c.23.78.9.91,1.89.33a4.89,4.89,0,0,0,1.78-1.78l1.42.87a8.42,8.42,0,0,1-3.28,3.34c-2.74,1.58-4.52.66-4.53-2a8.66,8.66,0,0,1,4.22-7C242.78,81.09,244.63,81.69,244.64,84.61ZM239,87l3.16-1.82c-.16-.84-.75-1.09-1.58-.61A3.36,3.36,0,0,0,239,87" style="fill:#fff"></path><polygon points="248.57 74.63 248.61 86.74 245.9 88.3 245.87 76.19 248.57 74.63" style="fill:#fff"></polygon><polygon points="253.01 72.07 253.05 84.17 250.35 85.73 250.32 73.62 253.01 72.07" style="fill:#fff"></polygon><path d="M258.64,71.94c2.53-1.47,4.34-.61,4.34,2a8.71,8.71,0,0,1-4.32,7.09c-2.51,1.45-4.35.6-4.36-2.08A8.75,8.75,0,0,1,258.64,71.94Zm0,6.67a3.54,3.54,0,0,0,1.62-3.06c0-1.33-.71-1.67-1.63-1.14a3.5,3.5,0,0,0-1.61,3c0,1.36.71,1.71,1.62,1.19" style="fill:#fff"></path><path d="M265.52,73.71c1-.55,1.61-.21,1.61.76a3.29,3.29,0,0,1-1.6,2.64c-.95.55-1.62.17-1.62-.78A3.24,3.24,0,0,1,265.52,73.71Z" style="fill:#fff"></path><polygon points="266.58 72.19 264.44 73.42 263.9 66.47 267.11 64.62 266.58 72.19" style="fill:#fff"></polygon><path d="M240.52,209.31l-26.83,15.4a5.28,5.28,0,0,0-2.64,4.54v19.53A5.17,5.17,0,0,0,219,253l4.66-2.66.42.68a.46.46,0,0,0,.07.07h0l0,0h0c.77.5,2.12,1.23,2.42,1.38h0a.3.3,0,0,0,.36-.18l1.72-4.87h0l17.12-9.78a5.25,5.25,0,0,0,2.64-4.55V213.57C248.43,209.79,242.87,208,240.52,209.31Z" style="fill:#E96AFF"></path><path d="M218.35,227.89Z" style="fill:none"></path><path d="M224.05,251.05a.46.46,0,0,0,.07.07h0l0,0h0c.77.5,2.12,1.23,2.42,1.38h0a.38.38,0,0,1-.17-.12l-1.66-2.7.33-.18h0l-1.46.84Z" style="fill:#fff;opacity:0.2"></path><path d="M216.94,229.65a5.23,5.23,0,0,1,1.41-1.76h0a4.83,4.83,0,0,1,.64-.44l26.83-15.39a1.74,1.74,0,0,1,2.61,1.51c0-3.78-5.56-5.6-7.91-4.26l-26.83,15.4a5.25,5.25,0,0,0-2,2Z" style="fill:#fff;opacity:0.4"></path><path d="M216.35,251.52V232a4.18,4.18,0,0,1,.05-.61,5.45,5.45,0,0,1,.54-1.73l-5.21-3a5.26,5.26,0,0,0-.68,2.56v19.53A5.18,5.18,0,0,0,219,253,1.75,1.75,0,0,1,216.35,251.52Z" style="fill:#fff;opacity:0.2"></path><path d="M229.5,232.74c.4-.23.73,0,.73.42v.21l0,6.06v1a1.59,1.59,0,0,1-.73,1.27l-3.65,2.11c-.4.23-.73,0-.74-.42l0-7.29a1.6,1.6,0,0,1,.74-1.27Zm-1.37,8.79a1.71,1.71,0,0,0,.76-1.33c0-.49-.34-.69-.77-.44a1.7,1.7,0,0,0-.77,1.33c0,.49.35.68.78.44" style="fill:#E96AFF"></path><g style="opacity:0.5"><path d="M229.5,232.74c.4-.23.73,0,.73.42v.21l0,6.06v1a1.59,1.59,0,0,1-.73,1.27l-3.65,2.11c-.4.23-.73,0-.74-.42l0-7.29a1.6,1.6,0,0,1,.74-1.27Zm-1.37,8.79a1.71,1.71,0,0,0,.76-1.33c0-.49-.34-.69-.77-.44a1.7,1.7,0,0,0-.77,1.33c0,.49.35.68.78.44" style="fill:#fff"></path></g><path d="M233.21,222.55c1.6-.92,2.86-.1,2.77,1.78l-.15,3,4.24-2.45c1.45-.84,1.77,1.1.79,2.46,1,.29.7,2-.2,3,.83.38.1,2.28-.91,3.07.66.27.09,2.31-1.07,3l-4.16,2.41-2.64,1.52c-.9.52-1.63.1-1.63-.93l0-6.06,1.67-4a16.25,16.25,0,0,0,1.31-6.11Z" style="fill:#fff"></path><path d="M356.25,114.76l-26.83,15.39a5.22,5.22,0,0,0-1.95,2,5.27,5.27,0,0,0-.68,2.57v19.52a5.17,5.17,0,0,0,7.91,4.26l4.66-2.66.42.68s.05,0,.07.06h0l0,0h0c.77.51,2.12,1.23,2.42,1.39v0a.28.28,0,0,0,.35-.17l1.72-4.87h0l17.13-9.79a5.24,5.24,0,0,0,2.64-4.55V119C364.17,115.24,358.6,113.41,356.25,114.76Z" style="fill:#E96AFF"></path><path d="M334.08,133.33h0Z" style="fill:none"></path><path d="M339.78,156.5s.05,0,.07.06h0l0,0h0c.77.51,2.12,1.23,2.42,1.39v0a.26.26,0,0,1-.17-.12l-1.66-2.69.33-.19h0l-1.47.84Z" style="fill:#fff;opacity:0.2"></path><path d="M332.68,135.09a5.29,5.29,0,0,1,1.4-1.75h0a4.77,4.77,0,0,1,.64-.43l26.83-15.4a1.75,1.75,0,0,1,2.62,1.52c0-3.78-5.57-5.61-7.92-4.26l-26.83,15.39a5.22,5.22,0,0,0-1.95,2Z" style="fill:#fff;opacity:0.4"></path><path d="M332.09,157V137.44a4.21,4.21,0,0,1,0-.62,5.47,5.47,0,0,1,.55-1.73l-5.21-3a5.27,5.27,0,0,0-.68,2.57v19.52a5.17,5.17,0,0,0,7.91,4.26A1.74,1.74,0,0,1,332.09,157Z" style="fill:#fff;opacity:0.2"></path><path d="M352.56,127a3.27,3.27,0,0,1,3.26-.33c1.81,1,1.82,4.37,0,7.47l-1,1.82-6.49,11.23-6.53-3.71-1-.61c-1.81-1-1.82-4.37,0-7.48A9.36,9.36,0,0,1,344,132a3.27,3.27,0,0,1,3.26-.33l1.06.59,1.05-1.81A9.34,9.34,0,0,1,352.56,127Z" style="fill:#fff"></path><path d="M317.18,197.27l-26.83,15.39a5.3,5.3,0,0,0-2.63,4.55v19.52a5.17,5.17,0,0,0,7.91,4.26l4.66-2.67.42.69s.05,0,.07.06h0l.05,0h0c.77.51,2.12,1.23,2.42,1.39v0a.29.29,0,0,0,.36-.18l1.72-4.86h0l17.12-9.79a5.22,5.22,0,0,0,2.64-4.55V201.53C325.09,197.75,319.53,195.92,317.18,197.27Z" style="fill:#E96AFF"></path><path d="M295,215.84Z" style="fill:none"></path><path d="M300.71,239s.05,0,.07.06h0l.05,0h0c.77.51,2.12,1.23,2.42,1.39v0a.27.27,0,0,1-.16-.12l-1.67-2.69.33-.19h0l-1.46.83Z" style="fill:#fff;opacity:0.2"></path><path d="M293.6,217.6a5.33,5.33,0,0,1,1.41-1.76h0a4.77,4.77,0,0,1,.64-.43L322.48,200a1.74,1.74,0,0,1,2.61,1.52c0-3.78-5.56-5.61-7.91-4.26l-26.83,15.39a5.15,5.15,0,0,0-2,2Z" style="fill:#fff;opacity:0.4"></path><path d="M293,239.47V220a4.21,4.21,0,0,1,.05-.62,5.45,5.45,0,0,1,.54-1.73l-5.2-3a5.17,5.17,0,0,0-.68,2.57v19.52a5.17,5.17,0,0,0,7.91,4.26A1.75,1.75,0,0,1,293,239.47Z" style="fill:#fff;opacity:0.2"></path><path d="M313.49,209.51a3.29,3.29,0,0,1,3.26-.33c1.81,1,1.82,4.38,0,7.48l-1,1.82-6.48,11.23L302.7,226l-1.05-.61c-1.81-1-1.82-4.37,0-7.48a9.36,9.36,0,0,1,3.25-3.42,3.27,3.27,0,0,1,3.26-.33l1.06.59,1-1.81A9.39,9.39,0,0,1,313.49,209.51Z" style="fill:#fff"></path><path d="M418.92,174.29l-26.83,15.39a5.3,5.3,0,0,0-2.63,4.54v19.53a5.18,5.18,0,0,0,7.91,4.26l4.66-2.67.42.69s.05,0,.07.06h0l.05,0h0c.77.51,2.12,1.23,2.42,1.39v0a.29.29,0,0,0,.36-.18l1.72-4.86h0l17.12-9.79a5.22,5.22,0,0,0,2.64-4.55V178.55C426.83,174.77,421.27,172.94,418.92,174.29Z" style="fill:#E96AFF"></path><path d="M396.75,192.86Z" style="fill:none"></path><path d="M402.45,216s.05,0,.07.06h0l.05,0h0c.77.51,2.12,1.23,2.42,1.39v0a.32.32,0,0,1-.17-.12l-1.66-2.69.33-.19h0l-1.46.83Z" style="fill:#fff;opacity:0.2"></path><path d="M395.34,194.62a5.33,5.33,0,0,1,1.41-1.76h0a4,4,0,0,1,.64-.43L424.22,177a1.74,1.74,0,0,1,2.61,1.52c0-3.78-5.56-5.61-7.91-4.26l-26.83,15.39a5.15,5.15,0,0,0-1.95,2Z" style="fill:#fff;opacity:0.4"></path><path d="M394.75,216.49V197a4.21,4.21,0,0,1,.05-.62,5.45,5.45,0,0,1,.54-1.73l-5.2-3a5.16,5.16,0,0,0-.68,2.56v19.53a5.18,5.18,0,0,0,7.91,4.26A1.75,1.75,0,0,1,394.75,216.49Z" style="fill:#fff;opacity:0.2"></path><path d="M408.53,197c.4-.23.73-.05.73.42v.21l0,6.06v1a1.59,1.59,0,0,1-.73,1.27l-3.64,2.11c-.41.23-.74,0-.74-.42l0-7.3a1.59,1.59,0,0,1,.73-1.26Zm-1.37,8.79a1.69,1.69,0,0,0,.77-1.33c0-.49-.35-.69-.77-.44a1.65,1.65,0,0,0-.77,1.33c0,.49.34.68.77.44" style="fill:#E96AFF"></path><g style="opacity:0.5"><path d="M408.53,197c.4-.23.73-.05.73.42v.21l0,6.06v1a1.59,1.59,0,0,1-.73,1.27l-3.64,2.11c-.41.23-.74,0-.74-.42l0-7.3a1.59,1.59,0,0,1,.73-1.26Zm-1.37,8.79a1.69,1.69,0,0,0,.77-1.33c0-.49-.35-.69-.77-.44a1.65,1.65,0,0,0-.77,1.33c0,.49.34.68.77.44" style="fill:#fff"></path></g><path d="M412.24,186.8c1.6-.92,2.87-.1,2.77,1.78l-.15,3,4.25-2.45c1.45-.84,1.76,1.1.78,2.46,1,.29.7,2-.2,3,.83.38.1,2.28-.91,3.07.66.27.1,2.31-1.07,3l-4.16,2.41-2.64,1.52c-.9.52-1.63.1-1.63-.93l0-6.06,1.67-4a16.29,16.29,0,0,0,1.31-6.11Z" style="fill:#fff"></path></g></svg>